<mxfile host="app.diagrams.net" modified="2022-08-27T05:14:52.370Z" agent="5.0 (Windows NT 10.0; Win64; x64) AppleWebKit/537.36 (KHTML, like Gecko) Chrome/103.0.5060.114 Safari/537.36 OPR/89.0.4447.64" etag="YBDqxg28irkg3H7QHwQr" version="20.2.7" type="github">
  <diagram id="R2lEEEUBdFMjLlhIrx00" name="Page-1">
    <mxGraphModel dx="3301" dy="1995" grid="0" gridSize="10" guides="1" tooltips="1" connect="1" arrows="1" fold="1" page="1" pageScale="1" pageWidth="1920" pageHeight="1200" background="#2B2B2B" math="0" shadow="0" extFonts="Permanent Marker^https://fonts.googleapis.com/css?family=Permanent+Marker">
      <root>
        <mxCell id="0" />
        <mxCell id="1" parent="0" />
        <mxCell id="G4YJekCF376z4yf0cxIy-45" value="orders" style="shape=table;startSize=30;container=1;collapsible=1;childLayout=tableLayout;fixedRows=1;rowLines=0;fontStyle=1;align=center;resizeLast=1;fillColor=#B2C9AB;strokeColor=#788AA3;fontColor=#46495D;" parent="1" vertex="1">
          <mxGeometry x="-931" y="-878" width="259" height="317.29166666666663" as="geometry" />
        </mxCell>
        <mxCell id="G4YJekCF376z4yf0cxIy-46" value="" style="shape=tableRow;horizontal=0;startSize=0;swimlaneHead=0;swimlaneBody=0;fillColor=none;collapsible=0;dropTarget=0;points=[[0,0.5],[1,0.5]];portConstraint=eastwest;top=0;left=0;right=0;bottom=1;strokeColor=#788AA3;fontColor=#46495D;" parent="G4YJekCF376z4yf0cxIy-45" vertex="1">
          <mxGeometry y="30" width="259" height="30" as="geometry" />
        </mxCell>
        <mxCell id="G4YJekCF376z4yf0cxIy-47" value="PK" style="shape=partialRectangle;connectable=0;fillColor=none;top=0;left=0;bottom=0;right=0;fontStyle=1;overflow=hidden;strokeColor=#788AA3;fontColor=#FFFFFF;" parent="G4YJekCF376z4yf0cxIy-46" vertex="1">
          <mxGeometry width="30" height="30" as="geometry">
            <mxRectangle width="30" height="30" as="alternateBounds" />
          </mxGeometry>
        </mxCell>
        <mxCell id="G4YJekCF376z4yf0cxIy-48" value="id SERIAL PRIMARY KEY" style="shape=partialRectangle;connectable=0;fillColor=none;top=0;left=0;bottom=0;right=0;align=left;spacingLeft=6;fontStyle=5;overflow=hidden;strokeColor=#788AA3;fontColor=#FFFFFF;" parent="G4YJekCF376z4yf0cxIy-46" vertex="1">
          <mxGeometry x="30" width="229" height="30" as="geometry">
            <mxRectangle width="229" height="30" as="alternateBounds" />
          </mxGeometry>
        </mxCell>
        <mxCell id="G4YJekCF376z4yf0cxIy-49" value="" style="shape=tableRow;horizontal=0;startSize=0;swimlaneHead=0;swimlaneBody=0;fillColor=none;collapsible=0;dropTarget=0;points=[[0,0.5],[1,0.5]];portConstraint=eastwest;top=0;left=0;right=0;bottom=0;strokeColor=#788AA3;fontColor=#46495D;" parent="G4YJekCF376z4yf0cxIy-45" vertex="1">
          <mxGeometry y="60" width="259" height="20" as="geometry" />
        </mxCell>
        <mxCell id="G4YJekCF376z4yf0cxIy-50" value="FK" style="shape=partialRectangle;connectable=0;fillColor=none;top=0;left=0;bottom=0;right=0;editable=1;overflow=hidden;strokeColor=#788AA3;fontColor=#FFFFFF;" parent="G4YJekCF376z4yf0cxIy-49" vertex="1">
          <mxGeometry width="30" height="20" as="geometry">
            <mxRectangle width="30" height="20" as="alternateBounds" />
          </mxGeometry>
        </mxCell>
        <mxCell id="G4YJekCF376z4yf0cxIy-51" value="user_id" style="shape=partialRectangle;connectable=0;fillColor=none;top=0;left=0;bottom=0;right=0;align=left;spacingLeft=6;overflow=hidden;strokeColor=#788AA3;fontColor=#FFFFFF;" parent="G4YJekCF376z4yf0cxIy-49" vertex="1">
          <mxGeometry x="30" width="229" height="20" as="geometry">
            <mxRectangle width="229" height="20" as="alternateBounds" />
          </mxGeometry>
        </mxCell>
        <mxCell id="G4YJekCF376z4yf0cxIy-52" value="" style="shape=tableRow;horizontal=0;startSize=0;swimlaneHead=0;swimlaneBody=0;fillColor=none;collapsible=0;dropTarget=0;points=[[0,0.5],[1,0.5]];portConstraint=eastwest;top=0;left=0;right=0;bottom=0;strokeColor=#788AA3;fontColor=#46495D;" parent="G4YJekCF376z4yf0cxIy-45" vertex="1">
          <mxGeometry y="80" width="259" height="30" as="geometry" />
        </mxCell>
        <mxCell id="G4YJekCF376z4yf0cxIy-53" value="" style="shape=partialRectangle;connectable=0;fillColor=none;top=0;left=0;bottom=0;right=0;editable=1;overflow=hidden;strokeColor=#788AA3;fontColor=#FFFFFF;" parent="G4YJekCF376z4yf0cxIy-52" vertex="1">
          <mxGeometry width="30" height="30" as="geometry">
            <mxRectangle width="30" height="30" as="alternateBounds" />
          </mxGeometry>
        </mxCell>
        <mxCell id="G4YJekCF376z4yf0cxIy-54" value="started_date TIMESTAMP" style="shape=partialRectangle;connectable=0;fillColor=none;top=0;left=0;bottom=0;right=0;align=left;spacingLeft=6;overflow=hidden;strokeColor=#788AA3;fontColor=#FFFFFF;" parent="G4YJekCF376z4yf0cxIy-52" vertex="1">
          <mxGeometry x="30" width="229" height="30" as="geometry">
            <mxRectangle width="229" height="30" as="alternateBounds" />
          </mxGeometry>
        </mxCell>
        <mxCell id="G4YJekCF376z4yf0cxIy-55" value="" style="shape=tableRow;horizontal=0;startSize=0;swimlaneHead=0;swimlaneBody=0;fillColor=none;collapsible=0;dropTarget=0;points=[[0,0.5],[1,0.5]];portConstraint=eastwest;top=0;left=0;right=0;bottom=0;strokeColor=#788AA3;fontColor=#46495D;" parent="G4YJekCF376z4yf0cxIy-45" vertex="1">
          <mxGeometry y="110" width="259" height="30" as="geometry" />
        </mxCell>
        <mxCell id="G4YJekCF376z4yf0cxIy-56" value="" style="shape=partialRectangle;connectable=0;fillColor=none;top=0;left=0;bottom=0;right=0;editable=1;overflow=hidden;strokeColor=#788AA3;fontColor=#FFFFFF;" parent="G4YJekCF376z4yf0cxIy-55" vertex="1">
          <mxGeometry width="30" height="30" as="geometry">
            <mxRectangle width="30" height="30" as="alternateBounds" />
          </mxGeometry>
        </mxCell>
        <mxCell id="G4YJekCF376z4yf0cxIy-57" value="completed_date TIMESTAMP" style="shape=partialRectangle;connectable=0;fillColor=none;top=0;left=0;bottom=0;right=0;align=left;spacingLeft=6;overflow=hidden;strokeColor=#788AA3;fontColor=#FFFFFF;" parent="G4YJekCF376z4yf0cxIy-55" vertex="1">
          <mxGeometry x="30" width="229" height="30" as="geometry">
            <mxRectangle width="229" height="30" as="alternateBounds" />
          </mxGeometry>
        </mxCell>
        <mxCell id="G4YJekCF376z4yf0cxIy-58" value="" style="shape=tableRow;horizontal=0;startSize=0;swimlaneHead=0;swimlaneBody=0;fillColor=none;collapsible=0;dropTarget=0;points=[[0,0.5],[1,0.5]];portConstraint=eastwest;top=0;left=0;right=0;bottom=0;strokeColor=#788AA3;fontColor=#46495D;" parent="G4YJekCF376z4yf0cxIy-45" vertex="1">
          <mxGeometry y="140" width="259" height="30" as="geometry" />
        </mxCell>
        <mxCell id="G4YJekCF376z4yf0cxIy-59" value="" style="shape=partialRectangle;connectable=0;fillColor=none;top=0;left=0;bottom=0;right=0;editable=1;overflow=hidden;strokeColor=#788AA3;fontColor=#FFFFFF;" parent="G4YJekCF376z4yf0cxIy-58" vertex="1">
          <mxGeometry width="30" height="30" as="geometry">
            <mxRectangle width="30" height="30" as="alternateBounds" />
          </mxGeometry>
        </mxCell>
        <mxCell id="G4YJekCF376z4yf0cxIy-60" value="estimated_time TIMESTAMP" style="shape=partialRectangle;connectable=0;fillColor=none;top=0;left=0;bottom=0;right=0;align=left;spacingLeft=6;overflow=hidden;strokeColor=#788AA3;fontColor=#FFFFFF;" parent="G4YJekCF376z4yf0cxIy-58" vertex="1">
          <mxGeometry x="30" width="229" height="30" as="geometry">
            <mxRectangle width="229" height="30" as="alternateBounds" />
          </mxGeometry>
        </mxCell>
        <mxCell id="G4YJekCF376z4yf0cxIy-61" style="shape=tableRow;horizontal=0;startSize=0;swimlaneHead=0;swimlaneBody=0;fillColor=none;collapsible=0;dropTarget=0;points=[[0,0.5],[1,0.5]];portConstraint=eastwest;top=0;left=0;right=0;bottom=0;strokeColor=#788AA3;fontColor=#46495D;" parent="G4YJekCF376z4yf0cxIy-45" vertex="1">
          <mxGeometry y="170" width="259" height="30" as="geometry" />
        </mxCell>
        <mxCell id="G4YJekCF376z4yf0cxIy-62" style="shape=partialRectangle;connectable=0;fillColor=none;top=0;left=0;bottom=0;right=0;editable=1;overflow=hidden;strokeColor=#788AA3;fontColor=#FFFFFF;" parent="G4YJekCF376z4yf0cxIy-61" vertex="1">
          <mxGeometry width="30" height="30" as="geometry">
            <mxRectangle width="30" height="30" as="alternateBounds" />
          </mxGeometry>
        </mxCell>
        <mxCell id="G4YJekCF376z4yf0cxIy-63" value="name VARCHAR" style="shape=partialRectangle;connectable=0;fillColor=none;top=0;left=0;bottom=0;right=0;align=left;spacingLeft=6;overflow=hidden;strokeColor=#788AA3;fontColor=#FFFFFF;" parent="G4YJekCF376z4yf0cxIy-61" vertex="1">
          <mxGeometry x="30" width="229" height="30" as="geometry">
            <mxRectangle width="229" height="30" as="alternateBounds" />
          </mxGeometry>
        </mxCell>
        <mxCell id="G4YJekCF376z4yf0cxIy-64" style="shape=tableRow;horizontal=0;startSize=0;swimlaneHead=0;swimlaneBody=0;fillColor=none;collapsible=0;dropTarget=0;points=[[0,0.5],[1,0.5]];portConstraint=eastwest;top=0;left=0;right=0;bottom=0;strokeColor=#788AA3;fontColor=#46495D;" parent="G4YJekCF376z4yf0cxIy-45" vertex="1">
          <mxGeometry y="200" width="259" height="30" as="geometry" />
        </mxCell>
        <mxCell id="G4YJekCF376z4yf0cxIy-65" style="shape=partialRectangle;connectable=0;fillColor=none;top=0;left=0;bottom=0;right=0;editable=1;overflow=hidden;strokeColor=#788AA3;fontColor=#FFFFFF;" parent="G4YJekCF376z4yf0cxIy-64" vertex="1">
          <mxGeometry width="30" height="30" as="geometry">
            <mxRectangle width="30" height="30" as="alternateBounds" />
          </mxGeometry>
        </mxCell>
        <mxCell id="G4YJekCF376z4yf0cxIy-66" value="phone VARCHAR NOT NULL" style="shape=partialRectangle;connectable=0;fillColor=none;top=0;left=0;bottom=0;right=0;align=left;spacingLeft=6;overflow=hidden;strokeColor=#788AA3;fontColor=#FFFFFF;" parent="G4YJekCF376z4yf0cxIy-64" vertex="1">
          <mxGeometry x="30" width="229" height="30" as="geometry">
            <mxRectangle width="229" height="30" as="alternateBounds" />
          </mxGeometry>
        </mxCell>
        <mxCell id="G4YJekCF376z4yf0cxIy-67" style="shape=tableRow;horizontal=0;startSize=0;swimlaneHead=0;swimlaneBody=0;fillColor=none;collapsible=0;dropTarget=0;points=[[0,0.5],[1,0.5]];portConstraint=eastwest;top=0;left=0;right=0;bottom=0;strokeColor=#788AA3;fontColor=#46495D;" parent="G4YJekCF376z4yf0cxIy-45" vertex="1">
          <mxGeometry y="230" width="259" height="29" as="geometry" />
        </mxCell>
        <mxCell id="G4YJekCF376z4yf0cxIy-68" style="shape=partialRectangle;connectable=0;fillColor=none;top=0;left=0;bottom=0;right=0;editable=1;overflow=hidden;strokeColor=#788AA3;fontColor=#FFFFFF;" parent="G4YJekCF376z4yf0cxIy-67" vertex="1">
          <mxGeometry width="30" height="29" as="geometry">
            <mxRectangle width="30" height="29" as="alternateBounds" />
          </mxGeometry>
        </mxCell>
        <mxCell id="G4YJekCF376z4yf0cxIy-69" value="note TEXT" style="shape=partialRectangle;connectable=0;fillColor=none;top=0;left=0;bottom=0;right=0;align=left;spacingLeft=6;overflow=hidden;strokeColor=#788AA3;fontColor=#FFFFFF;" parent="G4YJekCF376z4yf0cxIy-67" vertex="1">
          <mxGeometry x="30" width="229" height="29" as="geometry">
            <mxRectangle width="229" height="29" as="alternateBounds" />
          </mxGeometry>
        </mxCell>
        <mxCell id="G4YJekCF376z4yf0cxIy-201" style="shape=tableRow;horizontal=0;startSize=0;swimlaneHead=0;swimlaneBody=0;fillColor=none;collapsible=0;dropTarget=0;points=[[0,0.5],[1,0.5]];portConstraint=eastwest;top=0;left=0;right=0;bottom=0;strokeColor=#788AA3;fontColor=#46495D;" parent="G4YJekCF376z4yf0cxIy-45" vertex="1">
          <mxGeometry y="259" width="259" height="29" as="geometry" />
        </mxCell>
        <mxCell id="G4YJekCF376z4yf0cxIy-202" style="shape=partialRectangle;connectable=0;fillColor=none;top=0;left=0;bottom=0;right=0;editable=1;overflow=hidden;strokeColor=#788AA3;fontColor=#FFFFFF;" parent="G4YJekCF376z4yf0cxIy-201" vertex="1">
          <mxGeometry width="30" height="29" as="geometry">
            <mxRectangle width="30" height="29" as="alternateBounds" />
          </mxGeometry>
        </mxCell>
        <mxCell id="G4YJekCF376z4yf0cxIy-203" value="tax NUMERIC(5, 2)" style="shape=partialRectangle;connectable=0;fillColor=none;top=0;left=0;bottom=0;right=0;align=left;spacingLeft=6;overflow=hidden;strokeColor=#788AA3;fontColor=#FFFFFF;" parent="G4YJekCF376z4yf0cxIy-201" vertex="1">
          <mxGeometry x="30" width="229" height="29" as="geometry">
            <mxRectangle width="229" height="29" as="alternateBounds" />
          </mxGeometry>
        </mxCell>
        <mxCell id="G4YJekCF376z4yf0cxIy-204" style="shape=tableRow;horizontal=0;startSize=0;swimlaneHead=0;swimlaneBody=0;fillColor=none;collapsible=0;dropTarget=0;points=[[0,0.5],[1,0.5]];portConstraint=eastwest;top=0;left=0;right=0;bottom=0;strokeColor=#788AA3;fontColor=#46495D;" parent="G4YJekCF376z4yf0cxIy-45" vertex="1">
          <mxGeometry y="288" width="259" height="29" as="geometry" />
        </mxCell>
        <mxCell id="G4YJekCF376z4yf0cxIy-205" style="shape=partialRectangle;connectable=0;fillColor=none;top=0;left=0;bottom=0;right=0;editable=1;overflow=hidden;strokeColor=#788AA3;fontColor=#FFFFFF;" parent="G4YJekCF376z4yf0cxIy-204" vertex="1">
          <mxGeometry width="30" height="29" as="geometry">
            <mxRectangle width="30" height="29" as="alternateBounds" />
          </mxGeometry>
        </mxCell>
        <mxCell id="G4YJekCF376z4yf0cxIy-206" value="tip NUMERIC(5, 2)" style="shape=partialRectangle;connectable=0;fillColor=none;top=0;left=0;bottom=0;right=0;align=left;spacingLeft=6;overflow=hidden;strokeColor=#788AA3;fontColor=#FFFFFF;" parent="G4YJekCF376z4yf0cxIy-204" vertex="1">
          <mxGeometry x="30" width="229" height="29" as="geometry">
            <mxRectangle width="229" height="29" as="alternateBounds" />
          </mxGeometry>
        </mxCell>
        <mxCell id="G4YJekCF376z4yf0cxIy-70" value="items" style="shape=table;startSize=30;container=1;collapsible=1;childLayout=tableLayout;fixedRows=1;rowLines=0;fontStyle=1;align=center;resizeLast=1;fillColor=#B2C9AB;strokeColor=#788AA3;fontColor=#46495D;" parent="1" vertex="1">
          <mxGeometry x="-1272" y="-567" width="250" height="200" as="geometry" />
        </mxCell>
        <mxCell id="G4YJekCF376z4yf0cxIy-71" value="" style="shape=tableRow;horizontal=0;startSize=0;swimlaneHead=0;swimlaneBody=0;fillColor=none;collapsible=0;dropTarget=0;points=[[0,0.5],[1,0.5]];portConstraint=eastwest;top=0;left=0;right=0;bottom=1;strokeColor=#788AA3;fontColor=#46495D;" parent="G4YJekCF376z4yf0cxIy-70" vertex="1">
          <mxGeometry y="30" width="250" height="30" as="geometry" />
        </mxCell>
        <mxCell id="G4YJekCF376z4yf0cxIy-72" value="PK" style="shape=partialRectangle;connectable=0;fillColor=none;top=0;left=0;bottom=0;right=0;fontStyle=1;overflow=hidden;strokeColor=#788AA3;fontColor=#FFFFFF;" parent="G4YJekCF376z4yf0cxIy-71" vertex="1">
          <mxGeometry width="30" height="30" as="geometry">
            <mxRectangle width="30" height="30" as="alternateBounds" />
          </mxGeometry>
        </mxCell>
        <mxCell id="G4YJekCF376z4yf0cxIy-73" value="id SERIAL PRIMARY KEY" style="shape=partialRectangle;connectable=0;fillColor=none;top=0;left=0;bottom=0;right=0;align=left;spacingLeft=6;fontStyle=5;overflow=hidden;strokeColor=#788AA3;fontColor=#FFFFFF;" parent="G4YJekCF376z4yf0cxIy-71" vertex="1">
          <mxGeometry x="30" width="220" height="30" as="geometry">
            <mxRectangle width="220" height="30" as="alternateBounds" />
          </mxGeometry>
        </mxCell>
        <mxCell id="G4YJekCF376z4yf0cxIy-74" value="" style="shape=tableRow;horizontal=0;startSize=0;swimlaneHead=0;swimlaneBody=0;fillColor=none;collapsible=0;dropTarget=0;points=[[0,0.5],[1,0.5]];portConstraint=eastwest;top=0;left=0;right=0;bottom=0;strokeColor=#788AA3;fontColor=#46495D;" parent="G4YJekCF376z4yf0cxIy-70" vertex="1">
          <mxGeometry y="60" width="250" height="20" as="geometry" />
        </mxCell>
        <mxCell id="G4YJekCF376z4yf0cxIy-75" value="" style="shape=partialRectangle;connectable=0;fillColor=none;top=0;left=0;bottom=0;right=0;editable=1;overflow=hidden;strokeColor=#788AA3;fontColor=#FFFFFF;" parent="G4YJekCF376z4yf0cxIy-74" vertex="1">
          <mxGeometry width="30" height="20" as="geometry">
            <mxRectangle width="30" height="20" as="alternateBounds" />
          </mxGeometry>
        </mxCell>
        <mxCell id="G4YJekCF376z4yf0cxIy-76" value="name VARCHAR NOT NULL" style="shape=partialRectangle;connectable=0;fillColor=none;top=0;left=0;bottom=0;right=0;align=left;spacingLeft=6;overflow=hidden;strokeColor=#788AA3;fontColor=#FFFFFF;" parent="G4YJekCF376z4yf0cxIy-74" vertex="1">
          <mxGeometry x="30" width="220" height="20" as="geometry">
            <mxRectangle width="220" height="20" as="alternateBounds" />
          </mxGeometry>
        </mxCell>
        <mxCell id="G4YJekCF376z4yf0cxIy-77" value="" style="shape=tableRow;horizontal=0;startSize=0;swimlaneHead=0;swimlaneBody=0;fillColor=none;collapsible=0;dropTarget=0;points=[[0,0.5],[1,0.5]];portConstraint=eastwest;top=0;left=0;right=0;bottom=0;strokeColor=#788AA3;fontColor=#46495D;" parent="G4YJekCF376z4yf0cxIy-70" vertex="1">
          <mxGeometry y="80" width="250" height="30" as="geometry" />
        </mxCell>
        <mxCell id="G4YJekCF376z4yf0cxIy-78" value="" style="shape=partialRectangle;connectable=0;fillColor=none;top=0;left=0;bottom=0;right=0;editable=1;overflow=hidden;strokeColor=#788AA3;fontColor=#FFFFFF;" parent="G4YJekCF376z4yf0cxIy-77" vertex="1">
          <mxGeometry width="30" height="30" as="geometry">
            <mxRectangle width="30" height="30" as="alternateBounds" />
          </mxGeometry>
        </mxCell>
        <mxCell id="G4YJekCF376z4yf0cxIy-79" value="price NUMERIC(5, 2)" style="shape=partialRectangle;connectable=0;fillColor=none;top=0;left=0;bottom=0;right=0;align=left;spacingLeft=6;overflow=hidden;strokeColor=#788AA3;fontColor=#FFFFFF;" parent="G4YJekCF376z4yf0cxIy-77" vertex="1">
          <mxGeometry x="30" width="220" height="30" as="geometry">
            <mxRectangle width="220" height="30" as="alternateBounds" />
          </mxGeometry>
        </mxCell>
        <mxCell id="G4YJekCF376z4yf0cxIy-80" value="" style="shape=tableRow;horizontal=0;startSize=0;swimlaneHead=0;swimlaneBody=0;fillColor=none;collapsible=0;dropTarget=0;points=[[0,0.5],[1,0.5]];portConstraint=eastwest;top=0;left=0;right=0;bottom=0;strokeColor=#788AA3;fontColor=#46495D;" parent="G4YJekCF376z4yf0cxIy-70" vertex="1">
          <mxGeometry y="110" width="250" height="30" as="geometry" />
        </mxCell>
        <mxCell id="G4YJekCF376z4yf0cxIy-81" value="" style="shape=partialRectangle;connectable=0;fillColor=none;top=0;left=0;bottom=0;right=0;editable=1;overflow=hidden;strokeColor=#788AA3;fontColor=#FFFFFF;" parent="G4YJekCF376z4yf0cxIy-80" vertex="1">
          <mxGeometry width="30" height="30" as="geometry">
            <mxRectangle width="30" height="30" as="alternateBounds" />
          </mxGeometry>
        </mxCell>
        <mxCell id="G4YJekCF376z4yf0cxIy-82" value="description TEXT" style="shape=partialRectangle;connectable=0;fillColor=none;top=0;left=0;bottom=0;right=0;align=left;spacingLeft=6;overflow=hidden;strokeColor=#788AA3;fontColor=#FFFFFF;" parent="G4YJekCF376z4yf0cxIy-80" vertex="1">
          <mxGeometry x="30" width="220" height="30" as="geometry">
            <mxRectangle width="220" height="30" as="alternateBounds" />
          </mxGeometry>
        </mxCell>
        <mxCell id="G4YJekCF376z4yf0cxIy-83" style="shape=tableRow;horizontal=0;startSize=0;swimlaneHead=0;swimlaneBody=0;fillColor=none;collapsible=0;dropTarget=0;points=[[0,0.5],[1,0.5]];portConstraint=eastwest;top=0;left=0;right=0;bottom=0;strokeColor=#788AA3;fontColor=#46495D;" parent="G4YJekCF376z4yf0cxIy-70" vertex="1">
          <mxGeometry y="140" width="250" height="30" as="geometry" />
        </mxCell>
        <mxCell id="G4YJekCF376z4yf0cxIy-84" style="shape=partialRectangle;connectable=0;fillColor=none;top=0;left=0;bottom=0;right=0;editable=1;overflow=hidden;strokeColor=#788AA3;fontColor=#FFFFFF;" parent="G4YJekCF376z4yf0cxIy-83" vertex="1">
          <mxGeometry width="30" height="30" as="geometry">
            <mxRectangle width="30" height="30" as="alternateBounds" />
          </mxGeometry>
        </mxCell>
        <mxCell id="G4YJekCF376z4yf0cxIy-85" value="picture_url VARCHAR" style="shape=partialRectangle;connectable=0;fillColor=none;top=0;left=0;bottom=0;right=0;align=left;spacingLeft=6;overflow=hidden;strokeColor=#788AA3;fontColor=#FFFFFF;" parent="G4YJekCF376z4yf0cxIy-83" vertex="1">
          <mxGeometry x="30" width="220" height="30" as="geometry">
            <mxRectangle width="220" height="30" as="alternateBounds" />
          </mxGeometry>
        </mxCell>
        <mxCell id="EbQxwZ_eUIEpUKK_ZBr0-4" style="shape=tableRow;horizontal=0;startSize=0;swimlaneHead=0;swimlaneBody=0;fillColor=none;collapsible=0;dropTarget=0;points=[[0,0.5],[1,0.5]];portConstraint=eastwest;top=0;left=0;right=0;bottom=0;strokeColor=#788AA3;fontColor=#46495D;" vertex="1" parent="G4YJekCF376z4yf0cxIy-70">
          <mxGeometry y="170" width="250" height="30" as="geometry" />
        </mxCell>
        <mxCell id="EbQxwZ_eUIEpUKK_ZBr0-5" style="shape=partialRectangle;connectable=0;fillColor=none;top=0;left=0;bottom=0;right=0;editable=1;overflow=hidden;strokeColor=#788AA3;fontColor=#FFFFFF;" vertex="1" parent="EbQxwZ_eUIEpUKK_ZBr0-4">
          <mxGeometry width="30" height="30" as="geometry">
            <mxRectangle width="30" height="30" as="alternateBounds" />
          </mxGeometry>
        </mxCell>
        <mxCell id="EbQxwZ_eUIEpUKK_ZBr0-6" value="removed BOOLEAN" style="shape=partialRectangle;connectable=0;fillColor=none;top=0;left=0;bottom=0;right=0;align=left;spacingLeft=6;overflow=hidden;strokeColor=#788AA3;fontColor=#FFFFFF;" vertex="1" parent="EbQxwZ_eUIEpUKK_ZBr0-4">
          <mxGeometry x="30" width="220" height="30" as="geometry">
            <mxRectangle width="220" height="30" as="alternateBounds" />
          </mxGeometry>
        </mxCell>
        <mxCell id="G4YJekCF376z4yf0cxIy-86" value="users" style="shape=table;startSize=30;container=1;collapsible=1;childLayout=tableLayout;fixedRows=1;rowLines=0;fontStyle=1;align=center;resizeLast=1;fillColor=#B2C9AB;strokeColor=#788AA3;fontColor=#46495D;" parent="1" vertex="1">
          <mxGeometry x="-1283" y="-853" width="251" height="227" as="geometry" />
        </mxCell>
        <mxCell id="G4YJekCF376z4yf0cxIy-87" value="" style="shape=tableRow;horizontal=0;startSize=0;swimlaneHead=0;swimlaneBody=0;fillColor=none;collapsible=0;dropTarget=0;points=[[0,0.5],[1,0.5]];portConstraint=eastwest;top=0;left=0;right=0;bottom=1;strokeColor=#788AA3;fontColor=#46495D;" parent="G4YJekCF376z4yf0cxIy-86" vertex="1">
          <mxGeometry y="30" width="251" height="30" as="geometry" />
        </mxCell>
        <mxCell id="G4YJekCF376z4yf0cxIy-88" value="PK" style="shape=partialRectangle;connectable=0;fillColor=none;top=0;left=0;bottom=0;right=0;fontStyle=1;overflow=hidden;strokeColor=#788AA3;fontColor=#FFFFFF;" parent="G4YJekCF376z4yf0cxIy-87" vertex="1">
          <mxGeometry width="30" height="30" as="geometry">
            <mxRectangle width="30" height="30" as="alternateBounds" />
          </mxGeometry>
        </mxCell>
        <mxCell id="G4YJekCF376z4yf0cxIy-89" value="id SERIAL PRIMARY KEY" style="shape=partialRectangle;connectable=0;fillColor=none;top=0;left=0;bottom=0;right=0;align=left;spacingLeft=6;fontStyle=5;overflow=hidden;strokeColor=#788AA3;fontColor=#FFFFFF;" parent="G4YJekCF376z4yf0cxIy-87" vertex="1">
          <mxGeometry x="30" width="221" height="30" as="geometry">
            <mxRectangle width="221" height="30" as="alternateBounds" />
          </mxGeometry>
        </mxCell>
        <mxCell id="G4YJekCF376z4yf0cxIy-90" value="" style="shape=tableRow;horizontal=0;startSize=0;swimlaneHead=0;swimlaneBody=0;fillColor=none;collapsible=0;dropTarget=0;points=[[0,0.5],[1,0.5]];portConstraint=eastwest;top=0;left=0;right=0;bottom=0;strokeColor=#788AA3;fontColor=#46495D;" parent="G4YJekCF376z4yf0cxIy-86" vertex="1">
          <mxGeometry y="60" width="251" height="20" as="geometry" />
        </mxCell>
        <mxCell id="G4YJekCF376z4yf0cxIy-91" value="" style="shape=partialRectangle;connectable=0;fillColor=none;top=0;left=0;bottom=0;right=0;editable=1;overflow=hidden;strokeColor=#788AA3;fontColor=#FFFFFF;" parent="G4YJekCF376z4yf0cxIy-90" vertex="1">
          <mxGeometry width="30" height="20" as="geometry">
            <mxRectangle width="30" height="20" as="alternateBounds" />
          </mxGeometry>
        </mxCell>
        <mxCell id="G4YJekCF376z4yf0cxIy-92" value="name VARCHAR NOT NULL" style="shape=partialRectangle;connectable=0;fillColor=none;top=0;left=0;bottom=0;right=0;align=left;spacingLeft=6;overflow=hidden;strokeColor=#788AA3;fontColor=#FFFFFF;" parent="G4YJekCF376z4yf0cxIy-90" vertex="1">
          <mxGeometry x="30" width="221" height="20" as="geometry">
            <mxRectangle width="221" height="20" as="alternateBounds" />
          </mxGeometry>
        </mxCell>
        <mxCell id="G4YJekCF376z4yf0cxIy-93" value="" style="shape=tableRow;horizontal=0;startSize=0;swimlaneHead=0;swimlaneBody=0;fillColor=none;collapsible=0;dropTarget=0;points=[[0,0.5],[1,0.5]];portConstraint=eastwest;top=0;left=0;right=0;bottom=0;strokeColor=#788AA3;fontColor=#46495D;" parent="G4YJekCF376z4yf0cxIy-86" vertex="1">
          <mxGeometry y="80" width="251" height="27" as="geometry" />
        </mxCell>
        <mxCell id="G4YJekCF376z4yf0cxIy-94" value="" style="shape=partialRectangle;connectable=0;fillColor=none;top=0;left=0;bottom=0;right=0;editable=1;overflow=hidden;strokeColor=#788AA3;fontColor=#FFFFFF;" parent="G4YJekCF376z4yf0cxIy-93" vertex="1">
          <mxGeometry width="30" height="27" as="geometry">
            <mxRectangle width="30" height="27" as="alternateBounds" />
          </mxGeometry>
        </mxCell>
        <mxCell id="G4YJekCF376z4yf0cxIy-95" value="phone VARCHAR NOT NULL" style="shape=partialRectangle;connectable=0;fillColor=none;top=0;left=0;bottom=0;right=0;align=left;spacingLeft=6;overflow=hidden;strokeColor=#788AA3;fontColor=#FFFFFF;" parent="G4YJekCF376z4yf0cxIy-93" vertex="1">
          <mxGeometry x="30" width="221" height="27" as="geometry">
            <mxRectangle width="221" height="27" as="alternateBounds" />
          </mxGeometry>
        </mxCell>
        <mxCell id="G4YJekCF376z4yf0cxIy-96" style="shape=tableRow;horizontal=0;startSize=0;swimlaneHead=0;swimlaneBody=0;fillColor=none;collapsible=0;dropTarget=0;points=[[0,0.5],[1,0.5]];portConstraint=eastwest;top=0;left=0;right=0;bottom=0;strokeColor=#788AA3;fontColor=#46495D;" parent="G4YJekCF376z4yf0cxIy-86" vertex="1">
          <mxGeometry y="107" width="251" height="30" as="geometry" />
        </mxCell>
        <mxCell id="G4YJekCF376z4yf0cxIy-97" style="shape=partialRectangle;connectable=0;fillColor=none;top=0;left=0;bottom=0;right=0;editable=1;overflow=hidden;strokeColor=#788AA3;fontColor=#FFFFFF;" parent="G4YJekCF376z4yf0cxIy-96" vertex="1">
          <mxGeometry width="30" height="30" as="geometry">
            <mxRectangle width="30" height="30" as="alternateBounds" />
          </mxGeometry>
        </mxCell>
        <mxCell id="G4YJekCF376z4yf0cxIy-98" value="email VARCHAR UNIQUE NOT NULL" style="shape=partialRectangle;connectable=0;fillColor=none;top=0;left=0;bottom=0;right=0;align=left;spacingLeft=6;overflow=hidden;strokeColor=#788AA3;fontColor=#FFFFFF;" parent="G4YJekCF376z4yf0cxIy-96" vertex="1">
          <mxGeometry x="30" width="221" height="30" as="geometry">
            <mxRectangle width="221" height="30" as="alternateBounds" />
          </mxGeometry>
        </mxCell>
        <mxCell id="G4YJekCF376z4yf0cxIy-99" style="shape=tableRow;horizontal=0;startSize=0;swimlaneHead=0;swimlaneBody=0;fillColor=none;collapsible=0;dropTarget=0;points=[[0,0.5],[1,0.5]];portConstraint=eastwest;top=0;left=0;right=0;bottom=0;strokeColor=#788AA3;fontColor=#46495D;" parent="G4YJekCF376z4yf0cxIy-86" vertex="1">
          <mxGeometry y="137" width="251" height="30" as="geometry" />
        </mxCell>
        <mxCell id="G4YJekCF376z4yf0cxIy-100" style="shape=partialRectangle;connectable=0;fillColor=none;top=0;left=0;bottom=0;right=0;editable=1;overflow=hidden;strokeColor=#788AA3;fontColor=#FFFFFF;" parent="G4YJekCF376z4yf0cxIy-99" vertex="1">
          <mxGeometry width="30" height="30" as="geometry">
            <mxRectangle width="30" height="30" as="alternateBounds" />
          </mxGeometry>
        </mxCell>
        <mxCell id="G4YJekCF376z4yf0cxIy-101" value="password VARCHAR NOT NULL" style="shape=partialRectangle;connectable=0;fillColor=none;top=0;left=0;bottom=0;right=0;align=left;spacingLeft=6;overflow=hidden;strokeColor=#788AA3;fontColor=#FFFFFF;" parent="G4YJekCF376z4yf0cxIy-99" vertex="1">
          <mxGeometry x="30" width="221" height="30" as="geometry">
            <mxRectangle width="221" height="30" as="alternateBounds" />
          </mxGeometry>
        </mxCell>
        <mxCell id="G4YJekCF376z4yf0cxIy-102" value="" style="shape=tableRow;horizontal=0;startSize=0;swimlaneHead=0;swimlaneBody=0;fillColor=none;collapsible=0;dropTarget=0;points=[[0,0.5],[1,0.5]];portConstraint=eastwest;top=0;left=0;right=0;bottom=0;strokeColor=#788AA3;fontColor=#46495D;" parent="G4YJekCF376z4yf0cxIy-86" vertex="1">
          <mxGeometry y="167" width="251" height="30" as="geometry" />
        </mxCell>
        <mxCell id="G4YJekCF376z4yf0cxIy-103" value="" style="shape=partialRectangle;connectable=0;fillColor=none;top=0;left=0;bottom=0;right=0;editable=1;overflow=hidden;strokeColor=#788AA3;fontColor=#FFFFFF;" parent="G4YJekCF376z4yf0cxIy-102" vertex="1">
          <mxGeometry width="30" height="30" as="geometry">
            <mxRectangle width="30" height="30" as="alternateBounds" />
          </mxGeometry>
        </mxCell>
        <mxCell id="G4YJekCF376z4yf0cxIy-104" value="is_admin BOOLEAN" style="shape=partialRectangle;connectable=0;fillColor=none;top=0;left=0;bottom=0;right=0;align=left;spacingLeft=6;overflow=hidden;strokeColor=#788AA3;fontColor=#FFFFFF;" parent="G4YJekCF376z4yf0cxIy-102" vertex="1">
          <mxGeometry x="30" width="221" height="30" as="geometry">
            <mxRectangle width="221" height="30" as="alternateBounds" />
          </mxGeometry>
        </mxCell>
        <mxCell id="EbQxwZ_eUIEpUKK_ZBr0-1" style="shape=tableRow;horizontal=0;startSize=0;swimlaneHead=0;swimlaneBody=0;fillColor=none;collapsible=0;dropTarget=0;points=[[0,0.5],[1,0.5]];portConstraint=eastwest;top=0;left=0;right=0;bottom=0;strokeColor=#788AA3;fontColor=#46495D;" vertex="1" parent="G4YJekCF376z4yf0cxIy-86">
          <mxGeometry y="197" width="251" height="30" as="geometry" />
        </mxCell>
        <mxCell id="EbQxwZ_eUIEpUKK_ZBr0-2" style="shape=partialRectangle;connectable=0;fillColor=none;top=0;left=0;bottom=0;right=0;editable=1;overflow=hidden;strokeColor=#788AA3;fontColor=#FFFFFF;" vertex="1" parent="EbQxwZ_eUIEpUKK_ZBr0-1">
          <mxGeometry width="30" height="30" as="geometry">
            <mxRectangle width="30" height="30" as="alternateBounds" />
          </mxGeometry>
        </mxCell>
        <mxCell id="EbQxwZ_eUIEpUKK_ZBr0-3" value="deleted BOOLEAN" style="shape=partialRectangle;connectable=0;fillColor=none;top=0;left=0;bottom=0;right=0;align=left;spacingLeft=6;overflow=hidden;strokeColor=#788AA3;fontColor=#FFFFFF;" vertex="1" parent="EbQxwZ_eUIEpUKK_ZBr0-1">
          <mxGeometry x="30" width="221" height="30" as="geometry">
            <mxRectangle width="221" height="30" as="alternateBounds" />
          </mxGeometry>
        </mxCell>
        <mxCell id="G4YJekCF376z4yf0cxIy-105" value="" style="edgeStyle=elbowEdgeStyle;fontSize=12;html=1;endArrow=ERmany;rounded=0;fontColor=#46495D;strokeColor=#788AA3;fillColor=#B2C9AB;entryX=0;entryY=0.5;entryDx=0;entryDy=0;exitX=1;exitY=0.5;exitDx=0;exitDy=0;" parent="1" source="G4YJekCF376z4yf0cxIy-87" target="G4YJekCF376z4yf0cxIy-49" edge="1">
          <mxGeometry width="100" height="100" relative="1" as="geometry">
            <mxPoint x="-1035" y="-648" as="sourcePoint" />
            <mxPoint x="-932" y="-748" as="targetPoint" />
          </mxGeometry>
        </mxCell>
        <mxCell id="G4YJekCF376z4yf0cxIy-106" value="" style="edgeStyle=entityRelationEdgeStyle;fontSize=12;html=1;endArrow=ERmany;rounded=0;fontColor=#46495D;strokeColor=#788AA3;fillColor=#B2C9AB;exitX=1.004;exitY=0.614;exitDx=0;exitDy=0;exitPerimeter=0;entryX=0;entryY=0.5;entryDx=0;entryDy=0;" parent="1" source="G4YJekCF376z4yf0cxIy-46" target="G4YJekCF376z4yf0cxIy-111" edge="1">
          <mxGeometry width="100" height="100" relative="1" as="geometry">
            <mxPoint x="-760" y="-605" as="sourcePoint" />
            <mxPoint x="-648" y="-587" as="targetPoint" />
          </mxGeometry>
        </mxCell>
        <mxCell id="G4YJekCF376z4yf0cxIy-107" value="order_details" style="shape=table;startSize=30;container=1;collapsible=1;childLayout=tableLayout;fixedRows=1;rowLines=0;fontStyle=1;align=center;resizeLast=1;fillColor=#B2C9AB;strokeColor=#788AA3;fontColor=#46495D;" parent="1" vertex="1">
          <mxGeometry x="-582" y="-878" width="219" height="231" as="geometry" />
        </mxCell>
        <mxCell id="G4YJekCF376z4yf0cxIy-108" value="" style="shape=tableRow;horizontal=0;startSize=0;swimlaneHead=0;swimlaneBody=0;fillColor=none;collapsible=0;dropTarget=0;points=[[0,0.5],[1,0.5]];portConstraint=eastwest;top=0;left=0;right=0;bottom=1;strokeColor=#788AA3;fontColor=#46495D;" parent="G4YJekCF376z4yf0cxIy-107" vertex="1">
          <mxGeometry y="30" width="219" height="30" as="geometry" />
        </mxCell>
        <mxCell id="G4YJekCF376z4yf0cxIy-109" value="PK" style="shape=partialRectangle;connectable=0;fillColor=none;top=0;left=0;bottom=0;right=0;fontStyle=1;overflow=hidden;strokeColor=#788AA3;fontColor=#FFFFFF;" parent="G4YJekCF376z4yf0cxIy-108" vertex="1">
          <mxGeometry width="30" height="30" as="geometry">
            <mxRectangle width="30" height="30" as="alternateBounds" />
          </mxGeometry>
        </mxCell>
        <mxCell id="G4YJekCF376z4yf0cxIy-110" value="id SERIAL PRIMARY KEY" style="shape=partialRectangle;connectable=0;fillColor=none;top=0;left=0;bottom=0;right=0;align=left;spacingLeft=6;fontStyle=5;overflow=hidden;strokeColor=#788AA3;fontColor=#FFFFFF;" parent="G4YJekCF376z4yf0cxIy-108" vertex="1">
          <mxGeometry x="30" width="189" height="30" as="geometry">
            <mxRectangle width="189" height="30" as="alternateBounds" />
          </mxGeometry>
        </mxCell>
        <mxCell id="G4YJekCF376z4yf0cxIy-111" value="" style="shape=tableRow;horizontal=0;startSize=0;swimlaneHead=0;swimlaneBody=0;fillColor=none;collapsible=0;dropTarget=0;points=[[0,0.5],[1,0.5]];portConstraint=eastwest;top=0;left=0;right=0;bottom=0;strokeColor=#788AA3;fontColor=#46495D;" parent="G4YJekCF376z4yf0cxIy-107" vertex="1">
          <mxGeometry y="60" width="219" height="20" as="geometry" />
        </mxCell>
        <mxCell id="G4YJekCF376z4yf0cxIy-112" value="FK" style="shape=partialRectangle;connectable=0;fillColor=none;top=0;left=0;bottom=0;right=0;editable=1;overflow=hidden;strokeColor=#788AA3;fontColor=#FFFFFF;" parent="G4YJekCF376z4yf0cxIy-111" vertex="1">
          <mxGeometry width="30" height="20" as="geometry">
            <mxRectangle width="30" height="20" as="alternateBounds" />
          </mxGeometry>
        </mxCell>
        <mxCell id="G4YJekCF376z4yf0cxIy-113" value="order_id INTEGER" style="shape=partialRectangle;connectable=0;fillColor=none;top=0;left=0;bottom=0;right=0;align=left;spacingLeft=6;overflow=hidden;strokeColor=#788AA3;fontColor=#FFFFFF;" parent="G4YJekCF376z4yf0cxIy-111" vertex="1">
          <mxGeometry x="30" width="189" height="20" as="geometry">
            <mxRectangle width="189" height="20" as="alternateBounds" />
          </mxGeometry>
        </mxCell>
        <mxCell id="G4YJekCF376z4yf0cxIy-114" value="" style="shape=tableRow;horizontal=0;startSize=0;swimlaneHead=0;swimlaneBody=0;fillColor=none;collapsible=0;dropTarget=0;points=[[0,0.5],[1,0.5]];portConstraint=eastwest;top=0;left=0;right=0;bottom=0;strokeColor=#788AA3;fontColor=#46495D;" parent="G4YJekCF376z4yf0cxIy-107" vertex="1">
          <mxGeometry y="80" width="219" height="30" as="geometry" />
        </mxCell>
        <mxCell id="G4YJekCF376z4yf0cxIy-115" value="FK" style="shape=partialRectangle;connectable=0;fillColor=none;top=0;left=0;bottom=0;right=0;editable=1;overflow=hidden;strokeColor=#788AA3;fontColor=#FFFFFF;" parent="G4YJekCF376z4yf0cxIy-114" vertex="1">
          <mxGeometry width="30" height="30" as="geometry">
            <mxRectangle width="30" height="30" as="alternateBounds" />
          </mxGeometry>
        </mxCell>
        <mxCell id="G4YJekCF376z4yf0cxIy-116" value="item_id INTEGER" style="shape=partialRectangle;connectable=0;fillColor=none;top=0;left=0;bottom=0;right=0;align=left;spacingLeft=6;overflow=hidden;strokeColor=#788AA3;fontColor=#FFFFFF;" parent="G4YJekCF376z4yf0cxIy-114" vertex="1">
          <mxGeometry x="30" width="189" height="30" as="geometry">
            <mxRectangle width="189" height="30" as="alternateBounds" />
          </mxGeometry>
        </mxCell>
        <mxCell id="G4YJekCF376z4yf0cxIy-117" style="shape=tableRow;horizontal=0;startSize=0;swimlaneHead=0;swimlaneBody=0;fillColor=none;collapsible=0;dropTarget=0;points=[[0,0.5],[1,0.5]];portConstraint=eastwest;top=0;left=0;right=0;bottom=0;strokeColor=#788AA3;fontColor=#46495D;" parent="G4YJekCF376z4yf0cxIy-107" vertex="1">
          <mxGeometry y="110" width="219" height="30" as="geometry" />
        </mxCell>
        <mxCell id="G4YJekCF376z4yf0cxIy-118" value="FK" style="shape=partialRectangle;connectable=0;fillColor=none;top=0;left=0;bottom=0;right=0;editable=1;overflow=hidden;strokeColor=#788AA3;fontColor=#FFFFFF;" parent="G4YJekCF376z4yf0cxIy-117" vertex="1">
          <mxGeometry width="30" height="30" as="geometry">
            <mxRectangle width="30" height="30" as="alternateBounds" />
          </mxGeometry>
        </mxCell>
        <mxCell id="G4YJekCF376z4yf0cxIy-119" value="option_details_id INTEGER" style="shape=partialRectangle;connectable=0;fillColor=none;top=0;left=0;bottom=0;right=0;align=left;spacingLeft=6;overflow=hidden;strokeColor=#788AA3;fontColor=#FFFFFF;" parent="G4YJekCF376z4yf0cxIy-117" vertex="1">
          <mxGeometry x="30" width="189" height="30" as="geometry">
            <mxRectangle width="189" height="30" as="alternateBounds" />
          </mxGeometry>
        </mxCell>
        <mxCell id="G4YJekCF376z4yf0cxIy-120" value="" style="shape=tableRow;horizontal=0;startSize=0;swimlaneHead=0;swimlaneBody=0;fillColor=none;collapsible=0;dropTarget=0;points=[[0,0.5],[1,0.5]];portConstraint=eastwest;top=0;left=0;right=0;bottom=0;strokeColor=#788AA3;fontColor=#46495D;" parent="G4YJekCF376z4yf0cxIy-107" vertex="1">
          <mxGeometry y="140" width="219" height="30" as="geometry" />
        </mxCell>
        <mxCell id="G4YJekCF376z4yf0cxIy-121" value="" style="shape=partialRectangle;connectable=0;fillColor=none;top=0;left=0;bottom=0;right=0;editable=1;overflow=hidden;strokeColor=#788AA3;fontColor=#46495D;" parent="G4YJekCF376z4yf0cxIy-120" vertex="1">
          <mxGeometry width="30" height="30" as="geometry">
            <mxRectangle width="30" height="30" as="alternateBounds" />
          </mxGeometry>
        </mxCell>
        <mxCell id="G4YJekCF376z4yf0cxIy-122" value="quantity SMALLINT" style="shape=partialRectangle;connectable=0;fillColor=none;top=0;left=0;bottom=0;right=0;align=left;spacingLeft=6;overflow=hidden;strokeColor=#788AA3;fontColor=#FFFFFF;" parent="G4YJekCF376z4yf0cxIy-120" vertex="1">
          <mxGeometry x="30" width="189" height="30" as="geometry">
            <mxRectangle width="189" height="30" as="alternateBounds" />
          </mxGeometry>
        </mxCell>
        <mxCell id="G4YJekCF376z4yf0cxIy-123" style="shape=tableRow;horizontal=0;startSize=0;swimlaneHead=0;swimlaneBody=0;fillColor=none;collapsible=0;dropTarget=0;points=[[0,0.5],[1,0.5]];portConstraint=eastwest;top=0;left=0;right=0;bottom=0;strokeColor=#788AA3;fontColor=#46495D;" parent="G4YJekCF376z4yf0cxIy-107" vertex="1">
          <mxGeometry y="170" width="219" height="30" as="geometry" />
        </mxCell>
        <mxCell id="G4YJekCF376z4yf0cxIy-124" style="shape=partialRectangle;connectable=0;fillColor=none;top=0;left=0;bottom=0;right=0;editable=1;overflow=hidden;strokeColor=#788AA3;fontColor=#46495D;" parent="G4YJekCF376z4yf0cxIy-123" vertex="1">
          <mxGeometry width="30" height="30" as="geometry">
            <mxRectangle width="30" height="30" as="alternateBounds" />
          </mxGeometry>
        </mxCell>
        <mxCell id="G4YJekCF376z4yf0cxIy-125" value="price NUMERIC(6, 2)" style="shape=partialRectangle;connectable=0;fillColor=none;top=0;left=0;bottom=0;right=0;align=left;spacingLeft=6;overflow=hidden;strokeColor=#788AA3;fontColor=#FFFFFF;" parent="G4YJekCF376z4yf0cxIy-123" vertex="1">
          <mxGeometry x="30" width="189" height="30" as="geometry">
            <mxRectangle width="189" height="30" as="alternateBounds" />
          </mxGeometry>
        </mxCell>
        <mxCell id="G4YJekCF376z4yf0cxIy-208" style="shape=tableRow;horizontal=0;startSize=0;swimlaneHead=0;swimlaneBody=0;fillColor=none;collapsible=0;dropTarget=0;points=[[0,0.5],[1,0.5]];portConstraint=eastwest;top=0;left=0;right=0;bottom=0;strokeColor=#788AA3;fontColor=#46495D;" parent="G4YJekCF376z4yf0cxIy-107" vertex="1">
          <mxGeometry y="200" width="219" height="30" as="geometry" />
        </mxCell>
        <mxCell id="G4YJekCF376z4yf0cxIy-209" style="shape=partialRectangle;connectable=0;fillColor=none;top=0;left=0;bottom=0;right=0;editable=1;overflow=hidden;strokeColor=#788AA3;fontColor=#46495D;" parent="G4YJekCF376z4yf0cxIy-208" vertex="1">
          <mxGeometry width="30" height="30" as="geometry">
            <mxRectangle width="30" height="30" as="alternateBounds" />
          </mxGeometry>
        </mxCell>
        <mxCell id="G4YJekCF376z4yf0cxIy-210" value="note TEXT" style="shape=partialRectangle;connectable=0;fillColor=none;top=0;left=0;bottom=0;right=0;align=left;spacingLeft=6;overflow=hidden;strokeColor=#788AA3;fontColor=#FFFFFF;" parent="G4YJekCF376z4yf0cxIy-208" vertex="1">
          <mxGeometry x="30" width="189" height="30" as="geometry">
            <mxRectangle width="189" height="30" as="alternateBounds" />
          </mxGeometry>
        </mxCell>
        <mxCell id="G4YJekCF376z4yf0cxIy-126" value="" style="edgeStyle=elbowEdgeStyle;fontSize=12;html=1;endArrow=ERmany;rounded=0;fontColor=#46495D;strokeColor=#788AA3;fillColor=#B2C9AB;entryX=0;entryY=0.5;entryDx=0;entryDy=0;" parent="1" source="G4YJekCF376z4yf0cxIy-71" target="G4YJekCF376z4yf0cxIy-114" edge="1">
          <mxGeometry width="100" height="100" relative="1" as="geometry">
            <mxPoint x="-461" y="-716" as="sourcePoint" />
            <mxPoint x="-406.72" y="-703.4200000000001" as="targetPoint" />
            <Array as="points">
              <mxPoint x="-655" y="-658" />
            </Array>
          </mxGeometry>
        </mxCell>
        <mxCell id="G4YJekCF376z4yf0cxIy-127" value="options WIP" style="shape=table;startSize=30;container=1;collapsible=1;childLayout=tableLayout;fixedRows=1;rowLines=0;fontStyle=1;align=center;resizeLast=1;fillColor=#B2C9AB;strokeColor=#788AA3;fontColor=#9933FF;" parent="1" vertex="1">
          <mxGeometry x="-585" y="-475" width="219" height="170" as="geometry" />
        </mxCell>
        <mxCell id="G4YJekCF376z4yf0cxIy-128" value="" style="shape=tableRow;horizontal=0;startSize=0;swimlaneHead=0;swimlaneBody=0;fillColor=none;collapsible=0;dropTarget=0;points=[[0,0.5],[1,0.5]];portConstraint=eastwest;top=0;left=0;right=0;bottom=1;strokeColor=#788AA3;fontColor=#46495D;" parent="G4YJekCF376z4yf0cxIy-127" vertex="1">
          <mxGeometry y="30" width="219" height="30" as="geometry" />
        </mxCell>
        <mxCell id="G4YJekCF376z4yf0cxIy-129" value="PK" style="shape=partialRectangle;connectable=0;fillColor=none;top=0;left=0;bottom=0;right=0;fontStyle=1;overflow=hidden;strokeColor=#788AA3;fontColor=#FFFFFF;" parent="G4YJekCF376z4yf0cxIy-128" vertex="1">
          <mxGeometry width="30" height="30" as="geometry">
            <mxRectangle width="30" height="30" as="alternateBounds" />
          </mxGeometry>
        </mxCell>
        <mxCell id="G4YJekCF376z4yf0cxIy-130" value="id SERIAL PRIMARY KEY" style="shape=partialRectangle;connectable=0;fillColor=none;top=0;left=0;bottom=0;right=0;align=left;spacingLeft=6;fontStyle=5;overflow=hidden;strokeColor=#788AA3;fontColor=#FFFFFF;" parent="G4YJekCF376z4yf0cxIy-128" vertex="1">
          <mxGeometry x="30" width="189" height="30" as="geometry">
            <mxRectangle width="189" height="30" as="alternateBounds" />
          </mxGeometry>
        </mxCell>
        <mxCell id="G4YJekCF376z4yf0cxIy-131" value="" style="shape=tableRow;horizontal=0;startSize=0;swimlaneHead=0;swimlaneBody=0;fillColor=none;collapsible=0;dropTarget=0;points=[[0,0.5],[1,0.5]];portConstraint=eastwest;top=0;left=0;right=0;bottom=0;strokeColor=#788AA3;fontColor=#46495D;" parent="G4YJekCF376z4yf0cxIy-127" vertex="1">
          <mxGeometry y="60" width="219" height="20" as="geometry" />
        </mxCell>
        <mxCell id="G4YJekCF376z4yf0cxIy-132" value="" style="shape=partialRectangle;connectable=0;fillColor=none;top=0;left=0;bottom=0;right=0;editable=1;overflow=hidden;strokeColor=#788AA3;fontColor=#FFFFFF;" parent="G4YJekCF376z4yf0cxIy-131" vertex="1">
          <mxGeometry width="30" height="20" as="geometry">
            <mxRectangle width="30" height="20" as="alternateBounds" />
          </mxGeometry>
        </mxCell>
        <mxCell id="G4YJekCF376z4yf0cxIy-133" value="name VARCHAR" style="shape=partialRectangle;connectable=0;fillColor=none;top=0;left=0;bottom=0;right=0;align=left;spacingLeft=6;overflow=hidden;strokeColor=#788AA3;fontColor=#FFFFFF;" parent="G4YJekCF376z4yf0cxIy-131" vertex="1">
          <mxGeometry x="30" width="189" height="20" as="geometry">
            <mxRectangle width="189" height="20" as="alternateBounds" />
          </mxGeometry>
        </mxCell>
        <mxCell id="G4YJekCF376z4yf0cxIy-134" value="" style="shape=tableRow;horizontal=0;startSize=0;swimlaneHead=0;swimlaneBody=0;fillColor=none;collapsible=0;dropTarget=0;points=[[0,0.5],[1,0.5]];portConstraint=eastwest;top=0;left=0;right=0;bottom=0;strokeColor=#788AA3;fontColor=#46495D;" parent="G4YJekCF376z4yf0cxIy-127" vertex="1">
          <mxGeometry y="80" width="219" height="30" as="geometry" />
        </mxCell>
        <mxCell id="G4YJekCF376z4yf0cxIy-135" value="" style="shape=partialRectangle;connectable=0;fillColor=none;top=0;left=0;bottom=0;right=0;editable=1;overflow=hidden;strokeColor=#788AA3;fontColor=#FFFFFF;" parent="G4YJekCF376z4yf0cxIy-134" vertex="1">
          <mxGeometry width="30" height="30" as="geometry">
            <mxRectangle width="30" height="30" as="alternateBounds" />
          </mxGeometry>
        </mxCell>
        <mxCell id="G4YJekCF376z4yf0cxIy-136" value="description TEXT" style="shape=partialRectangle;connectable=0;fillColor=none;top=0;left=0;bottom=0;right=0;align=left;spacingLeft=6;overflow=hidden;strokeColor=#788AA3;fontColor=#FFFFFF;" parent="G4YJekCF376z4yf0cxIy-134" vertex="1">
          <mxGeometry x="30" width="189" height="30" as="geometry">
            <mxRectangle width="189" height="30" as="alternateBounds" />
          </mxGeometry>
        </mxCell>
        <mxCell id="G4YJekCF376z4yf0cxIy-137" value="" style="shape=tableRow;horizontal=0;startSize=0;swimlaneHead=0;swimlaneBody=0;fillColor=none;collapsible=0;dropTarget=0;points=[[0,0.5],[1,0.5]];portConstraint=eastwest;top=0;left=0;right=0;bottom=0;strokeColor=#788AA3;fontColor=#46495D;" parent="G4YJekCF376z4yf0cxIy-127" vertex="1">
          <mxGeometry y="110" width="219" height="30" as="geometry" />
        </mxCell>
        <mxCell id="G4YJekCF376z4yf0cxIy-138" value="" style="shape=partialRectangle;connectable=0;fillColor=none;top=0;left=0;bottom=0;right=0;editable=1;overflow=hidden;strokeColor=#788AA3;fontColor=#FFFFFF;" parent="G4YJekCF376z4yf0cxIy-137" vertex="1">
          <mxGeometry width="30" height="30" as="geometry">
            <mxRectangle width="30" height="30" as="alternateBounds" />
          </mxGeometry>
        </mxCell>
        <mxCell id="G4YJekCF376z4yf0cxIy-139" value="is_quantity BOOLEAN" style="shape=partialRectangle;connectable=0;fillColor=none;top=0;left=0;bottom=0;right=0;align=left;spacingLeft=6;overflow=hidden;strokeColor=#788AA3;fontColor=#FFFFFF;" parent="G4YJekCF376z4yf0cxIy-137" vertex="1">
          <mxGeometry x="30" width="189" height="30" as="geometry">
            <mxRectangle width="189" height="30" as="alternateBounds" />
          </mxGeometry>
        </mxCell>
        <mxCell id="G4YJekCF376z4yf0cxIy-140" style="shape=tableRow;horizontal=0;startSize=0;swimlaneHead=0;swimlaneBody=0;fillColor=none;collapsible=0;dropTarget=0;points=[[0,0.5],[1,0.5]];portConstraint=eastwest;top=0;left=0;right=0;bottom=0;strokeColor=#788AA3;fontColor=#46495D;" parent="G4YJekCF376z4yf0cxIy-127" vertex="1">
          <mxGeometry y="140" width="219" height="30" as="geometry" />
        </mxCell>
        <mxCell id="G4YJekCF376z4yf0cxIy-141" style="shape=partialRectangle;connectable=0;fillColor=none;top=0;left=0;bottom=0;right=0;editable=1;overflow=hidden;strokeColor=#788AA3;fontColor=#FFFFFF;" parent="G4YJekCF376z4yf0cxIy-140" vertex="1">
          <mxGeometry width="30" height="30" as="geometry">
            <mxRectangle width="30" height="30" as="alternateBounds" />
          </mxGeometry>
        </mxCell>
        <mxCell id="G4YJekCF376z4yf0cxIy-142" style="shape=partialRectangle;connectable=0;fillColor=none;top=0;left=0;bottom=0;right=0;align=left;spacingLeft=6;overflow=hidden;strokeColor=#788AA3;fontColor=#FFFFFF;" parent="G4YJekCF376z4yf0cxIy-140" vertex="1">
          <mxGeometry x="30" width="189" height="30" as="geometry">
            <mxRectangle width="189" height="30" as="alternateBounds" />
          </mxGeometry>
        </mxCell>
        <mxCell id="G4YJekCF376z4yf0cxIy-143" value="" style="shape=partialRectangle;whiteSpace=wrap;html=1;bottom=0;right=0;fillColor=none;fontColor=#46495D;strokeColor=#788AA3;" parent="1" vertex="1">
          <mxGeometry x="-1354" y="-1035" width="120" height="60" as="geometry" />
        </mxCell>
        <mxCell id="G4YJekCF376z4yf0cxIy-144" value="" style="shape=partialRectangle;whiteSpace=wrap;html=1;top=0;left=0;fillColor=none;fontColor=#46495D;strokeColor=#788AA3;" parent="1" vertex="1">
          <mxGeometry x="-352" y="-286" width="120" height="60" as="geometry" />
        </mxCell>
        <mxCell id="G4YJekCF376z4yf0cxIy-145" value="&lt;font style=&quot;font-size: 18px;&quot;&gt;&lt;b&gt;flavour-labs Entity Relationship Diagram&lt;/b&gt;&lt;/font&gt;" style="rounded=1;whiteSpace=wrap;html=1;fontColor=#46495D;strokeColor=#788AA3;fillColor=#B2C9AB;" parent="1" vertex="1">
          <mxGeometry x="-924" y="-992" width="213" height="73" as="geometry" />
        </mxCell>
        <mxCell id="G4YJekCF376z4yf0cxIy-146" value="" style="edgeStyle=elbowEdgeStyle;fontSize=12;html=1;endArrow=ERmany;rounded=0;fontColor=#46495D;strokeColor=#788AA3;fillColor=#B2C9AB;entryX=1;entryY=0.5;entryDx=0;entryDy=0;exitX=0;exitY=0.5;exitDx=0;exitDy=0;" parent="1" source="G4YJekCF376z4yf0cxIy-128" target="G4YJekCF376z4yf0cxIy-151" edge="1">
          <mxGeometry width="100" height="100" relative="1" as="geometry">
            <mxPoint x="-666" y="-509" as="sourcePoint" />
            <mxPoint x="-572" y="-773" as="targetPoint" />
          </mxGeometry>
        </mxCell>
        <mxCell id="G4YJekCF376z4yf0cxIy-147" value="option_details WIP" style="shape=table;startSize=30;container=1;collapsible=1;childLayout=tableLayout;fixedRows=1;rowLines=0;fontStyle=1;align=center;resizeLast=1;fillColor=#B2C9AB;strokeColor=#788AA3;fontColor=#9933FF;" parent="1" vertex="1">
          <mxGeometry x="-938" y="-500" width="219" height="230" as="geometry" />
        </mxCell>
        <mxCell id="G4YJekCF376z4yf0cxIy-148" value="" style="shape=tableRow;horizontal=0;startSize=0;swimlaneHead=0;swimlaneBody=0;fillColor=none;collapsible=0;dropTarget=0;points=[[0,0.5],[1,0.5]];portConstraint=eastwest;top=0;left=0;right=0;bottom=1;strokeColor=#788AA3;fontColor=#46495D;" parent="G4YJekCF376z4yf0cxIy-147" vertex="1">
          <mxGeometry y="30" width="219" height="30" as="geometry" />
        </mxCell>
        <mxCell id="G4YJekCF376z4yf0cxIy-149" value="PK" style="shape=partialRectangle;connectable=0;fillColor=none;top=0;left=0;bottom=0;right=0;fontStyle=1;overflow=hidden;strokeColor=#788AA3;fontColor=#FFFFFF;" parent="G4YJekCF376z4yf0cxIy-148" vertex="1">
          <mxGeometry width="30" height="30" as="geometry">
            <mxRectangle width="30" height="30" as="alternateBounds" />
          </mxGeometry>
        </mxCell>
        <mxCell id="G4YJekCF376z4yf0cxIy-150" value="id SERIAL PRIMARY KEY" style="shape=partialRectangle;connectable=0;fillColor=none;top=0;left=0;bottom=0;right=0;align=left;spacingLeft=6;fontStyle=5;overflow=hidden;strokeColor=#788AA3;fontColor=#FFFFFF;" parent="G4YJekCF376z4yf0cxIy-148" vertex="1">
          <mxGeometry x="30" width="189" height="30" as="geometry">
            <mxRectangle width="189" height="30" as="alternateBounds" />
          </mxGeometry>
        </mxCell>
        <mxCell id="G4YJekCF376z4yf0cxIy-151" value="" style="shape=tableRow;horizontal=0;startSize=0;swimlaneHead=0;swimlaneBody=0;fillColor=none;collapsible=0;dropTarget=0;points=[[0,0.5],[1,0.5]];portConstraint=eastwest;top=0;left=0;right=0;bottom=0;strokeColor=#788AA3;fontColor=#46495D;" parent="G4YJekCF376z4yf0cxIy-147" vertex="1">
          <mxGeometry y="60" width="219" height="20" as="geometry" />
        </mxCell>
        <mxCell id="G4YJekCF376z4yf0cxIy-152" value="FK" style="shape=partialRectangle;connectable=0;fillColor=none;top=0;left=0;bottom=0;right=0;editable=1;overflow=hidden;strokeColor=#788AA3;fontColor=#FFFFFF;" parent="G4YJekCF376z4yf0cxIy-151" vertex="1">
          <mxGeometry width="30" height="20" as="geometry">
            <mxRectangle width="30" height="20" as="alternateBounds" />
          </mxGeometry>
        </mxCell>
        <mxCell id="G4YJekCF376z4yf0cxIy-153" value="option_id INTEGER" style="shape=partialRectangle;connectable=0;fillColor=none;top=0;left=0;bottom=0;right=0;align=left;spacingLeft=6;overflow=hidden;strokeColor=#788AA3;fontColor=#FFFFFF;" parent="G4YJekCF376z4yf0cxIy-151" vertex="1">
          <mxGeometry x="30" width="189" height="20" as="geometry">
            <mxRectangle width="189" height="20" as="alternateBounds" />
          </mxGeometry>
        </mxCell>
        <mxCell id="G4YJekCF376z4yf0cxIy-154" style="shape=tableRow;horizontal=0;startSize=0;swimlaneHead=0;swimlaneBody=0;fillColor=none;collapsible=0;dropTarget=0;points=[[0,0.5],[1,0.5]];portConstraint=eastwest;top=0;left=0;right=0;bottom=0;strokeColor=#788AA3;fontColor=#46495D;" parent="G4YJekCF376z4yf0cxIy-147" vertex="1">
          <mxGeometry y="80" width="219" height="30" as="geometry" />
        </mxCell>
        <mxCell id="G4YJekCF376z4yf0cxIy-155" value="FK" style="shape=partialRectangle;connectable=0;fillColor=none;top=0;left=0;bottom=0;right=0;editable=1;overflow=hidden;strokeColor=#788AA3;fontColor=#FFFFFF;" parent="G4YJekCF376z4yf0cxIy-154" vertex="1">
          <mxGeometry width="30" height="30" as="geometry">
            <mxRectangle width="30" height="30" as="alternateBounds" />
          </mxGeometry>
        </mxCell>
        <mxCell id="G4YJekCF376z4yf0cxIy-156" value="item_id INTEGER" style="shape=partialRectangle;connectable=0;fillColor=none;top=0;left=0;bottom=0;right=0;align=left;spacingLeft=6;overflow=hidden;strokeColor=#788AA3;fontColor=#FFFFFF;" parent="G4YJekCF376z4yf0cxIy-154" vertex="1">
          <mxGeometry x="30" width="189" height="30" as="geometry">
            <mxRectangle width="189" height="30" as="alternateBounds" />
          </mxGeometry>
        </mxCell>
        <mxCell id="G4YJekCF376z4yf0cxIy-157" value="" style="shape=tableRow;horizontal=0;startSize=0;swimlaneHead=0;swimlaneBody=0;fillColor=none;collapsible=0;dropTarget=0;points=[[0,0.5],[1,0.5]];portConstraint=eastwest;top=0;left=0;right=0;bottom=0;strokeColor=#788AA3;fontColor=#46495D;" parent="G4YJekCF376z4yf0cxIy-147" vertex="1">
          <mxGeometry y="110" width="219" height="30" as="geometry" />
        </mxCell>
        <mxCell id="G4YJekCF376z4yf0cxIy-158" value="" style="shape=partialRectangle;connectable=0;fillColor=none;top=0;left=0;bottom=0;right=0;editable=1;overflow=hidden;strokeColor=#788AA3;fontColor=#FFFFFF;" parent="G4YJekCF376z4yf0cxIy-157" vertex="1">
          <mxGeometry width="30" height="30" as="geometry">
            <mxRectangle width="30" height="30" as="alternateBounds" />
          </mxGeometry>
        </mxCell>
        <mxCell id="G4YJekCF376z4yf0cxIy-159" value="name VARCHAR" style="shape=partialRectangle;connectable=0;fillColor=none;top=0;left=0;bottom=0;right=0;align=left;spacingLeft=6;overflow=hidden;strokeColor=#788AA3;fontColor=#FFFFFF;" parent="G4YJekCF376z4yf0cxIy-157" vertex="1">
          <mxGeometry x="30" width="189" height="30" as="geometry">
            <mxRectangle width="189" height="30" as="alternateBounds" />
          </mxGeometry>
        </mxCell>
        <mxCell id="G4YJekCF376z4yf0cxIy-160" style="shape=tableRow;horizontal=0;startSize=0;swimlaneHead=0;swimlaneBody=0;fillColor=none;collapsible=0;dropTarget=0;points=[[0,0.5],[1,0.5]];portConstraint=eastwest;top=0;left=0;right=0;bottom=0;strokeColor=#788AA3;fontColor=#46495D;" parent="G4YJekCF376z4yf0cxIy-147" vertex="1">
          <mxGeometry y="140" width="219" height="30" as="geometry" />
        </mxCell>
        <mxCell id="G4YJekCF376z4yf0cxIy-161" style="shape=partialRectangle;connectable=0;fillColor=none;top=0;left=0;bottom=0;right=0;editable=1;overflow=hidden;strokeColor=#788AA3;fontColor=#FFFFFF;" parent="G4YJekCF376z4yf0cxIy-160" vertex="1">
          <mxGeometry width="30" height="30" as="geometry">
            <mxRectangle width="30" height="30" as="alternateBounds" />
          </mxGeometry>
        </mxCell>
        <mxCell id="G4YJekCF376z4yf0cxIy-162" value="description TEXT" style="shape=partialRectangle;connectable=0;fillColor=none;top=0;left=0;bottom=0;right=0;align=left;spacingLeft=6;overflow=hidden;strokeColor=#788AA3;fontColor=#FFFFFF;" parent="G4YJekCF376z4yf0cxIy-160" vertex="1">
          <mxGeometry x="30" width="189" height="30" as="geometry">
            <mxRectangle width="189" height="30" as="alternateBounds" />
          </mxGeometry>
        </mxCell>
        <mxCell id="G4YJekCF376z4yf0cxIy-163" value="" style="shape=tableRow;horizontal=0;startSize=0;swimlaneHead=0;swimlaneBody=0;fillColor=none;collapsible=0;dropTarget=0;points=[[0,0.5],[1,0.5]];portConstraint=eastwest;top=0;left=0;right=0;bottom=0;strokeColor=#788AA3;fontColor=#46495D;" parent="G4YJekCF376z4yf0cxIy-147" vertex="1">
          <mxGeometry y="170" width="219" height="30" as="geometry" />
        </mxCell>
        <mxCell id="G4YJekCF376z4yf0cxIy-164" value="" style="shape=partialRectangle;connectable=0;fillColor=none;top=0;left=0;bottom=0;right=0;editable=1;overflow=hidden;strokeColor=#788AA3;fontColor=#FFFFFF;" parent="G4YJekCF376z4yf0cxIy-163" vertex="1">
          <mxGeometry width="30" height="30" as="geometry">
            <mxRectangle width="30" height="30" as="alternateBounds" />
          </mxGeometry>
        </mxCell>
        <mxCell id="G4YJekCF376z4yf0cxIy-165" value="choice VARCHAR" style="shape=partialRectangle;connectable=0;fillColor=none;top=0;left=0;bottom=0;right=0;align=left;spacingLeft=6;overflow=hidden;strokeColor=#788AA3;fontColor=#FFFFFF;" parent="G4YJekCF376z4yf0cxIy-163" vertex="1">
          <mxGeometry x="30" width="189" height="30" as="geometry">
            <mxRectangle width="189" height="30" as="alternateBounds" />
          </mxGeometry>
        </mxCell>
        <mxCell id="EbQxwZ_eUIEpUKK_ZBr0-8" style="shape=tableRow;horizontal=0;startSize=0;swimlaneHead=0;swimlaneBody=0;fillColor=none;collapsible=0;dropTarget=0;points=[[0,0.5],[1,0.5]];portConstraint=eastwest;top=0;left=0;right=0;bottom=0;strokeColor=#788AA3;fontColor=#46495D;" vertex="1" parent="G4YJekCF376z4yf0cxIy-147">
          <mxGeometry y="200" width="219" height="30" as="geometry" />
        </mxCell>
        <mxCell id="EbQxwZ_eUIEpUKK_ZBr0-9" style="shape=partialRectangle;connectable=0;fillColor=none;top=0;left=0;bottom=0;right=0;editable=1;overflow=hidden;strokeColor=#788AA3;fontColor=#FFFFFF;" vertex="1" parent="EbQxwZ_eUIEpUKK_ZBr0-8">
          <mxGeometry width="30" height="30" as="geometry">
            <mxRectangle width="30" height="30" as="alternateBounds" />
          </mxGeometry>
        </mxCell>
        <mxCell id="EbQxwZ_eUIEpUKK_ZBr0-10" value="quantity SMALLINT" style="shape=partialRectangle;connectable=0;fillColor=none;top=0;left=0;bottom=0;right=0;align=left;spacingLeft=6;overflow=hidden;strokeColor=#788AA3;fontColor=#FFFFFF;" vertex="1" parent="EbQxwZ_eUIEpUKK_ZBr0-8">
          <mxGeometry x="30" width="189" height="30" as="geometry">
            <mxRectangle width="189" height="30" as="alternateBounds" />
          </mxGeometry>
        </mxCell>
        <mxCell id="G4YJekCF376z4yf0cxIy-166" value="" style="edgeStyle=elbowEdgeStyle;fontSize=12;html=1;endArrow=ERmany;rounded=0;fontColor=#46495D;strokeColor=#788AA3;fillColor=#B2C9AB;exitX=1;exitY=0.5;exitDx=0;exitDy=0;entryX=0;entryY=0.5;entryDx=0;entryDy=0;" parent="1" source="G4YJekCF376z4yf0cxIy-71" target="G4YJekCF376z4yf0cxIy-154" edge="1">
          <mxGeometry width="100" height="100" relative="1" as="geometry">
            <mxPoint x="-940" y="-545" as="sourcePoint" />
            <mxPoint x="-602" y="-589" as="targetPoint" />
          </mxGeometry>
        </mxCell>
        <mxCell id="G4YJekCF376z4yf0cxIy-167" value="" style="edgeStyle=elbowEdgeStyle;fontSize=12;html=1;endArrow=ERmany;rounded=0;fontColor=#46495D;strokeColor=#788AA3;fillColor=#B2C9AB;entryX=0;entryY=0.5;entryDx=0;entryDy=0;exitX=1;exitY=0.5;exitDx=0;exitDy=0;" parent="1" source="G4YJekCF376z4yf0cxIy-148" target="G4YJekCF376z4yf0cxIy-117" edge="1">
          <mxGeometry width="100" height="100" relative="1" as="geometry">
            <mxPoint x="-641" y="-665" as="sourcePoint" />
            <mxPoint x="-522" y="-580" as="targetPoint" />
            <Array as="points">
              <mxPoint x="-636" y="-604" />
            </Array>
          </mxGeometry>
        </mxCell>
      </root>
    </mxGraphModel>
  </diagram>
</mxfile>
